<svg width="30" height="30" viewBox="0 0 30 30" fill="none" xmlns="http://www.w3.org/2000/svg">
<path d="M10 21C8.9 21 8.01 21.9 8.01 23C8.01 24.1 8.9 25 10 25C11.1 25 12 24.1 12 23C12 21.9 11.1 21 10 21ZM4 5V7H6L9.6 14.59L8.25 17.04C8.09 17.32 8 17.65 8 18C8 19.1 8.9 20 10 20H22V18H10.42C10.28 18 10.17 17.89 10.17 17.75L10.2 17.63L11.1 16H18.55C19.3 16 19.96 15.59 20.3 14.97L23.88 8.48C23.96 8.34 24 8.17 24 8C24 7.45 23.55 7 23 7H8.21L7.27 5H4ZM20 21C18.9 21 18.01 21.9 18.01 23C18.01 24.1 18.9 25 20 25C21.1 25 22 24.1 22 23C22 21.9 21.1 21 20 21Z" fill="white"/>
</svg>
