<svg width="175" height="175" viewBox="0 0 175 175" fill="none" xmlns="http://www.w3.org/2000/svg">
<path d="M7.88588 51.1979C-0.912418 70.4935 -2.40368 92.3277 3.6894 112.64C9.78249 132.953 23.0452 150.361 41.0113 161.629C58.9773 172.896 80.4239 177.255 101.363 173.895C122.302 170.535 141.308 159.685 154.847 143.363C168.386 127.04 175.536 106.356 174.969 85.157C174.401 63.9578 166.153 43.6862 151.76 28.112C137.366 12.5378 117.807 2.72092 96.7177 0.486878C75.6289 -1.74716 54.4465 3.7537 37.1094 15.9665L87.5 87.5L7.88588 51.1979Z" fill="#4DA8DA"/>
<path d="M157.851 87.5C161.799 87.5 165.034 84.2925 164.671 80.361C163.486 67.5529 159.127 55.2006 151.939 44.4433C143.423 31.6985 131.319 21.7651 117.158 15.8993C102.997 10.0335 87.414 8.49879 72.3805 11.4891C57.347 14.4795 43.5378 21.8607 32.6992 32.6992C21.8607 43.5378 14.4795 57.347 11.4891 72.3805C8.49879 87.414 10.0335 102.997 15.8993 117.158C21.7651 131.319 31.6985 143.423 44.4433 151.939C55.2006 159.127 67.5529 163.486 80.361 164.671C84.2925 165.034 87.5 161.799 87.5 157.851V157.851C87.5 153.903 84.2891 150.744 80.3661 150.298C70.3904 149.165 60.7916 145.666 52.3868 140.051C41.9933 133.106 33.8926 123.235 29.109 111.686C24.3253 100.138 23.0737 87.4299 25.5124 75.1699C27.9511 62.9099 33.9705 51.6484 42.8094 42.8094C51.6484 33.9705 62.9099 27.9511 75.1699 25.5124C87.4299 23.0737 100.138 24.3253 111.686 29.109C123.235 33.8926 133.106 41.9933 140.051 52.3868C145.666 60.7916 149.165 70.3904 150.298 80.3661C150.744 84.2891 153.903 87.5 157.851 87.5V87.5Z" fill="white"/>
<circle cx="87" cy="87" r="13" fill="white"/>
</svg>
